PathFileType	4	(X/Y/Z)	KinectAzureSkeleton.trc
DateRate	CameraRate	NumFrames	NumMarkers	Units	OrigDateRate	OrigDataStartFrame	OrigNumFrames
30	30	7	32	mm	30	1	183
Frame#	Time			PELVIS			SPINE_NAVAL			SPINE_CHEST			NECK			CLAVICLE_LEFT			SHOULDER_LEFT			ELBOW_LEFT			WRIST_LEFT			HAND_LEFT			HANDTIP_LEFT			THUMB_LEFT			CLAVICLE_RIGHT			SHOULDER_RIGHT			ELBOW_RIGHT			WRIST_RIGHT			HAND_RIGHT			HANDTIP_RIGHT			THUMB_RIGHT			HIP_LEFT			KNEE_LEFT			ANKLE_LEFT			FOOT_LEFT			HIP_RIGHT			KNEE_RIGHT			ANKLE_RIGHT			FOOT_RIGHT			HEAD			NOSE			EYE_LEFT			EAR_LEFT			EYE_RIGHT			EAR_RIGHT
		X1	Y1	Z1	X2	Y2	Z2	X3	Y3	Z3	X4	Y4	Z4	X5	Y5	Z5	X6	Y6	Z6	X7	Y7	Z7	X8	Y8	Z8	X9	Y9	Z9	X10	Y10	Z10	X11	Y11	Z11	X12	Y12	Z12	X13	Y13	Z13	X14	Y14	Z14	X15	Y15	Z15	X16	Y16	Z16	X17	Y17	Z17	X18	Y18	Z18	X19	Y19	Z19	X20	Y20	Z20	X21	Y21	Z21	X22	Y22	Z22	X23	Y23	Z23	X24	Y24	Z24	X25	Y25	Z25	X26	Y26	Z26	X27	Y27	Z27	X28	Y28	Z28	X29	Y29	Z29	X30	Y30	Z30	X31	Y31	Z31	X32	Y32	Z32

0	0.051066	-4905.336426	108.321960	258.027130	-4914.290527	278.884399	261.239349	-4936.600098	413.612396	260.035187	-4973.579590	618.039734	252.464508	-4977.854980	583.259583	232.221756	-4951.664551	581.129517	97.887680	-4961.952148	318.823547	64.649712	-4745.687988	331.337158	113.585052	-4653.670410	330.102966	119.289307	-4558.825195	332.651306	160.551636	-4624.605957	390.423492	147.714920	-4978.841309	583.379578	281.137970	-4926.273926	555.143250	392.026428	-4940.629883	291.326141	445.726776	-4824.658203	98.638489	445.527771	-4839.707520	4.748747	474.058228	-4866.739746	-92.322289	460.304047	-4820.358887	-40.174320	418.490631	-4907.021973	109.877190	170.748718	-5004.837891	-260.697571	177.653046	-5075.075684	-620.232239	180.766617	-4949.549316	-747.465759	165.522659	-4903.815430	106.916466	336.729858	-5001.785156	-263.226379	341.331360	-5052.932617	-629.756348	332.039612	-4945.284180	-754.854370	332.877289	-4957.238281	694.521729	251.301620	-4830.330566	781.213989	258.564423	-4861.150391	797.498657	217.854675	-4955.020996	753.876160	154.449234	-4866.045898	804.317505	283.958710	-4975.680664	770.440613	334.671387
1	0.084400	-4907.350098	106.790527	259.923859	-4917.608398	277.166016	262.654694	-4936.321777	412.336304	260.901764	-4956.845703	619.046387	259.036743	-4963.609375	585.339783	237.741348	-4944.097168	581.528015	102.411362	-4961.820313	320.458618	64.411774	-4745.774902	327.767548	114.632217	-4653.852539	328.555481	120.864662	-4558.465820	332.723663	160.532166	-4626.192383	390.202820	147.665848	-4965.195313	584.128662	286.592102	-4933.267090	539.162598	399.698029	-4965.533203	278.085083	457.863403	-4796.765137	135.320007	417.349030	-4820.586914	48.480892	458.981171	-4857.062988	-46.299480	462.741913	-4805.641113	-5.635358	410.809814	-4907.960449	108.151978	172.690216	-5012.990723	-259.959473	186.642105	-5073.618164	-620.934326	192.856064	-4944.562012	-744.091858	175.290543	-4906.798828	105.559784	338.586182	-5008.815918	-263.230865	337.096893	-5059.156250	-629.508240	324.520538	-4950.013184	-753.023926	330.106903	-4934.487793	693.930725	260.314545	-4785.162109	729.192017	270.243744	-4807.877441	757.350586	230.755203	-4910.663086	753.229187	166.474548	-4810.428711	762.210388	297.115967	-4925.166992	767.194763	347.384888
2	0.117733	-4907.332031	106.564240	258.825592	-4916.768555	277.029633	262.413025	-4935.103516	412.307434	261.579224	-4954.047852	619.238037	259.559998	-4961.741211	585.498901	238.608185	-4944.607422	580.829590	102.936386	-4961.916992	320.028961	62.360573	-4745.257324	331.869720	109.298325	-4653.550781	330.234436	118.364861	-4559.438477	331.208008	161.245789	-4625.268066	390.516296	147.580170	-4961.812012	584.475769	287.505554	-4920.247070	545.501587	399.748474	-4970.132813	288.562988	464.007813	-4820.220703	128.982773	413.009033	-4829.876953	42.348682	460.440216	-4847.941895	-57.322540	451.819519	-4806.085449	-11.714332	415.861115	-4909.886719	108.258385	171.603287	-5013.250000	-260.454834	185.703339	-5074.720215	-621.417847	191.677505	-4948.800781	-747.986328	174.992767	-4905.027344	105.033485	337.477692	-5008.747070	-263.420044	338.085785	-5072.186523	-627.778992	325.326477	-4975.028320	-761.109253	324.053101	-4931.061523	693.970276	259.852936	-4780.925293	727.239380	262.773529	-4805.050293	755.539978	224.208389	-4910.750977	752.539063	164.690918	-4804.497559	760.731079	290.613586	-4916.777832	767.511414	346.063629
3	0.151066	-4907.332031	106.564209	258.825592	-4916.768555	277.029602	262.413086	-4935.103516	412.307373	261.579346	-4954.048828	619.237854	259.560394	-4961.741699	585.498779	238.608551	-4944.607422	580.829712	102.936852	-4961.915039	320.029083	62.360500	-4745.255371	331.871399	109.298218	-4653.549316	330.236786	118.364731	-4559.437500	331.211029	161.245651	-4625.266602	390.518829	147.580170	-4961.812988	584.475525	287.505920	-4920.248535	545.500610	399.748749	-4970.130371	288.560730	464.005554	-4820.213867	128.985916	413.003510	-4829.867188	42.350693	460.433167	-4847.929688	-57.320892	451.810730	-4806.074707	-11.710793	415.852997	-4909.886719	108.258400	171.603317	-5013.250000	-260.454803	185.703186	-5074.720215	-621.417725	191.677261	-4948.801270	-747.986572	174.992355	-4905.027344	105.033417	337.477692	-5008.746582	-263.420227	338.085388	-5072.184570	-627.779419	325.325806	-4975.024414	-761.107849	324.052185	-4931.062988	693.970215	259.853516	-4780.927246	727.239929	262.774414	-4805.052246	755.540405	224.209274	-4910.752930	752.539185	164.691635	-4804.499512	760.731506	290.614471	-4916.779297	767.511230	346.064362
4	0.184400	-4900.183594	107.593620	257.901886	-4910.518066	278.578308	261.960358	-4933.924316	413.545288	261.975616	-4968.403320	619.107483	256.252502	-4973.850586	584.355957	235.996658	-4945.670410	581.126282	101.664200	-4953.159668	318.535858	63.850975	-4737.096680	329.195679	116.988976	-4644.633301	329.682465	118.758934	-4550.946289	335.524261	163.010834	-4615.494629	388.643890	150.348419	-4973.199707	584.317322	285.066772	-4918.218750	556.431458	395.305084	-4945.413574	295.351868	460.328339	-4818.304199	117.408875	404.972900	-4820.334473	34.248955	459.707123	-4844.123535	-64.037323	446.316132	-4808.738281	-23.833260	414.925079	-4905.138184	109.369026	170.487228	-5016.482910	-257.948090	193.135605	-5079.183594	-619.861267	203.607330	-4951.843262	-743.960938	176.102814	-4895.715332	105.989586	336.727386	-4992.523438	-265.664215	332.739716	-5093.337402	-622.463989	312.532410	-5014.771484	-768.145996	309.750244	-4950.999023	695.592102	254.773254	-4820.445313	777.105469	266.113678	-4849.748047	795.275879	224.871033	-4944.179199	756.347107	158.602386	-4855.847168	801.376953	291.148560	-4968.217285	771.253357	339.108459
5	0.217733	-4904.071289	111.227333	260.609894	-4917.787109	285.743774	262.616180	-4924.015625	425.458008	267.997467	-4953.382324	636.036743	281.435303	-4937.438477	603.106628	300.964233	-4946.175781	585.094543	439.804626	-4924.437500	315.142639	453.441406	-4835.219727	105.841354	459.126587	-4792.581543	23.307777	476.404175	-4748.989258	-71.794540	459.150055	-4832.509277	-36.548840	456.907074	-4938.034668	604.678467	250.852173	-4963.877441	578.278442	127.204643	-4943.624512	304.941986	92.302528	-4856.571289	93.239632	65.417084	-4845.376465	61.078323	161.288132	-4826.000977	17.560356	253.987167	-4798.133301	108.296906	197.259811	-4899.060547	110.594139	349.942108	-4996.730469	-269.909668	348.956635	-5055.758301	-640.669617	347.118347	-5206.273926	-745.990417	340.275787	-4908.589844	111.795044	180.055130	-5005.173340	-268.340363	192.708939	-5092.764160	-636.457092	220.088943	-5228.446289	-729.099365	260.270874	-4993.777344	705.156982	285.421417	-5150.912598	699.112610	273.799622	-5136.586426	731.217102	315.997986	-5034.438477	752.411133	383.759857	-5134.924316	739.996948	248.297028	-5022.652832	779.142029	199.383209
6	0.251066	-4904.686523	99.254143	255.753464	-4909.465332	270.204193	264.650421	-4922.163086	406.464752	268.469269	-4946.761230	613.366028	272.362396	-4954.867188	579.781128	251.098846	-4955.631348	580.929382	113.888832	-4956.198242	325.325867	42.989342	-4888.105957	117.473572	1.452643	-4872.532715	27.729555	-14.252253	-4863.168457	-74.053726	3.352504	-4818.369629	-0.741765	25.410049	-4951.859375	577.715881	300.009674	-4911.108398	551.957886	416.675415	-4878.109375	290.785675	477.894775	-4791.978027	84.310394	505.762573	-4761.353516	-9.045765	521.609497	-4769.084473	-107.633835	496.823975	-4764.149414	-46.072216	457.356537	-4911.875000	103.587303	168.633331	-4997.851563	-270.943817	168.228867	-5059.906738	-632.873657	163.154175	-4923.003418	-742.801025	124.299362	-4898.203613	95.343658	334.313263	-4996.750000	-275.532867	324.985138	-5105.191895	-629.552368	299.828949	-5003.857422	-760.269043	303.980377	-4925.737793	688.902222	272.947845	-4782.135254	745.175171	271.465302	-4812.406250	771.565308	235.775726	-4919.693359	755.400208	180.680023	-4809.138672	773.019836	302.478760	-4918.349121	758.976318	363.245575
